<svg width="35" height="37" viewBox="0 0 35 37" fill="none" xmlns="http://www.w3.org/2000/svg">
<path d="M2.79746 26.2879C3.06947 25.0185 3.20548 24.3838 3.66634 24.0112C4.12721 23.6387 4.77631 23.6387 6.07452 23.6387L11.548 23.6387C12.8462 23.6387 13.4953 23.6387 13.9562 24.0112C14.417 24.3838 14.553 25.0185 14.8251 26.2879L15.9023 31.3151C16.3036 33.1879 16.5043 34.1243 16.0013 34.7465C15.4982 35.3688 14.5406 35.3688 12.6253 35.3688H4.99726C3.08194 35.3688 2.12428 35.3688 1.62126 34.7465C1.11823 34.1243 1.31889 33.1879 1.72021 31.3151L2.79746 26.2879Z" fill="#FFE595" stroke="#FFE595" stroke-width="1.34058"/>
<path d="M20.3922 26.2879C20.6642 25.0185 20.8002 24.3838 21.2611 24.0112C21.7219 23.6387 22.371 23.6387 23.6692 23.6387L29.1427 23.6387C30.4409 23.6387 31.09 23.6387 31.5509 24.0112C32.0118 24.3838 32.1478 25.0185 32.4198 26.2879L33.497 31.3151C33.8984 33.1879 34.099 34.1243 33.596 34.7465C33.093 35.3688 32.1353 35.3688 30.22 35.3688H22.592C20.6767 35.3688 19.719 35.3688 19.216 34.7465C18.713 34.1243 18.9136 33.1879 19.3149 31.3151L20.3922 26.2879Z" fill="#FFE595" stroke="#FFE595" stroke-width="1.34058"/>
<path d="M11.1353 11.3956C11.4268 10.0355 11.5725 9.35549 12.0663 8.95631C12.5601 8.55713 13.2555 8.55713 14.6465 8.55713H20.5708C21.9617 8.55713 22.6572 8.55713 23.1509 8.95631C23.6447 9.35549 23.7904 10.0355 24.0819 11.3956L25.0565 15.944C25.4865 17.9506 25.7015 18.9538 25.1626 19.6205C24.6236 20.2872 23.5975 20.2872 21.5454 20.2872H17.6086H13.6718C11.6197 20.2872 10.5936 20.2872 10.0547 19.6205C9.5157 18.9538 9.73069 17.9506 10.1607 15.944L11.1353 11.3956Z" fill="#FFE595" stroke="#FFE595" stroke-width="1.34058"/>
<path fill-rule="evenodd" clip-rule="evenodd" d="M17.6088 0.848694C18.1641 0.848694 18.6143 1.29884 18.6143 1.85413V3.52986C18.6143 4.08514 18.1641 4.53529 17.6088 4.53529C17.0535 4.53529 16.6034 4.08514 16.6034 3.52986V1.85413C16.6034 1.29884 17.0535 0.848694 17.6088 0.848694Z" fill="#FFE595"/>
<path fill-rule="evenodd" clip-rule="evenodd" d="M28.3735 2.81914C28.7661 3.21179 28.7661 3.8484 28.3735 4.24104L26.6978 5.91677C26.3051 6.30942 25.6685 6.30942 25.2759 5.91677C24.8832 5.52412 24.8832 4.88752 25.2759 4.49487L26.9516 2.81914C27.3442 2.4265 27.9808 2.4265 28.3735 2.81914Z" fill="#FFE595"/>
<path fill-rule="evenodd" clip-rule="evenodd" d="M9.94038 5.91659C9.54773 6.30923 8.91112 6.30923 8.51848 5.91659L6.84275 4.24086C6.4501 3.84821 6.4501 3.21161 6.84275 2.81896C7.2354 2.42631 7.87201 2.42631 8.26465 2.81896L9.94038 4.49469C10.333 4.88733 10.333 5.52394 9.94038 5.91659Z" fill="#FFE595"/>
</svg>
